# Blender v2.91.2 OBJ File: 'SHIKAKU_Stage_1.blend'
# www.blender.org
mtllib Loop_Door.mtl
o Cube
v -4.087350 -3.325305 0.300000
v -4.087350 3.648833 0.300000
v -4.087350 -3.325305 -0.300000
v -4.087350 3.648833 -0.300000
v 4.087350 -3.325305 0.300000
v 4.087350 3.648833 0.300000
v 4.087350 -3.325305 -0.300000
v 4.087350 3.648833 -0.300000
v 0.358808 -3.325305 -0.300000
v 0.358808 3.648833 -0.300000
v 0.358808 -3.325305 0.300000
v 0.358808 3.648833 0.300000
v -0.254295 -3.325305 -0.300000
v -0.254295 3.648833 0.300000
v -0.254295 3.648833 -0.300000
v -0.254295 -3.325305 0.300000
v -0.254295 3.648833 -4.000000
v 0.358808 3.648833 -4.000000
v 0.358808 -3.325305 -4.000000
v -0.254295 -3.325305 -4.000000
v -0.254295 -3.325305 4.000000
v 0.358808 -3.325305 4.000000
v 0.358808 3.648833 4.000000
v -0.254295 3.648833 4.000000
vt 4.658277 2.566954
vt 4.658277 5.116314
vt 3.893470 5.116314
vt 3.893470 2.566954
vt 3.128661 0.017597
vt 3.128661 2.566956
vt 1.965879 2.566956
vt 1.965879 0.017597
vt 3.893470 2.566954
vt 3.893470 5.116314
vt 3.128664 5.116314
vt 3.128664 2.566954
vt 5.519413 0.017597
vt 5.519413 2.566956
vt 4.324039 2.566956
vt 4.324039 0.017597
vt -1.937463 0.017595
vt -0.774681 0.017595
vt -0.774681 0.782405
vt -1.937463 0.782402
vt -4.519414 0.017595
vt -3.324039 0.017595
vt -3.324039 0.782405
vt -4.519414 0.782402
vt -5.873398 0.017595
vt -4.710617 0.017595
vt -4.710617 0.782402
vt -5.873398 0.782402
vt -2.128665 0.017595
vt -2.128665 0.782402
vt 1.965880 5.116314
vt 1.965880 2.566954
vt -4.710617 -4.698717
vt -4.519413 -4.698717
vt 4.324039 0.017595
vt 4.324038 2.566954
vt 3.128663 2.566954
vt 3.128664 0.017595
vt -3.324040 0.017595
vt -3.324040 0.782402
vt 1.774679 -1.556132
vt 4.324039 -1.556132
vt 4.324039 0.017596
vt 1.774679 0.017596
vt 5.040682 2.566954
vt 5.040681 5.116314
vt 4.849479 5.116314
vt 4.849479 2.566954
vt 4.324039 -1.556132
vt 6.873397 -1.556132
vt 6.873397 0.017596
vt 4.324039 0.017596
vt -2.128665 -4.698717
vt -1.937462 -4.698717
vt 1.774677 0.017595
vt -0.774682 0.017595
vt -0.774682 -1.556132
vt 1.774677 -1.556132
vt 4.849479 2.566954
vt 4.849479 5.116314
vt 4.658277 5.116314
vt 4.658277 2.566954
vt 1.774677 1.591322
vt -0.774682 1.591322
vt -0.774682 0.017595
vt 1.774677 0.017595
vt -1.937464 5.498717
vt -2.128665 5.498717
vt -4.519415 5.498717
vt -4.710617 5.498717
vn -1.0000 0.0000 0.0000
vn -0.0000 0.0000 -1.0000
vn 1.0000 0.0000 0.0000
vn 0.0000 0.0000 1.0000
vn 0.0000 -1.0000 0.0000
vn 0.0000 1.0000 0.0000
usemtl Material.003
s off
f 1/1/1 2/2/1 4/3/1 3/4/1
f 9/5/2 10/6/2 8/7/2 7/8/2
f 7/9/3 8/10/3 6/11/3 5/12/3
f 16/13/4 14/14/4 2/15/4 1/16/4
f 9/17/5 7/18/5 5/19/5 11/20/5
f 15/21/6 4/22/6 2/23/6 14/24/6
f 8/25/6 10/26/6 12/27/6 6/28/6
f 13/29/5 9/17/5 11/20/5 16/30/5
f 5/12/4 6/11/4 12/31/4 11/32/4
f 15/21/6 10/26/6 18/33/6 17/34/6
f 3/35/2 4/36/2 15/37/2 13/38/2
f 3/39/5 13/29/5 16/30/5 1/40/5
f 10/26/6 15/21/6 14/24/6 12/27/6
f 11/41/3 12/42/3 23/43/3 22/44/3
f 20/45/2 17/46/2 18/47/2 19/48/2
f 13/49/1 15/50/1 17/51/1 20/52/1
f 9/17/5 13/29/5 20/53/5 19/54/5
f 10/55/3 9/56/3 19/57/3 18/58/3
f 22/59/4 23/60/4 24/61/4 21/62/4
f 14/63/1 16/64/1 21/65/1 24/66/1
f 16/30/5 11/20/5 22/67/5 21/68/5
f 12/27/6 14/24/6 24/69/6 23/70/6
