# Blender v2.91.2 OBJ File: 'SHIKAKU_Stage_1.blend'
# www.blender.org
mtllib SHIKAKU_Stage_3.mtl
o Phase_3_Cube.003
v -51.600822 187.227051 -163.243225
v -51.600822 187.227051 -256.337097
v 41.493065 47.889435 -191.650742
v 41.493065 47.889435 -227.929596
v -51.600822 -122.424942 -163.243225
v -51.600822 -122.424942 -256.337097
v 41.493065 31.907104 -191.650742
v 41.493065 31.907104 -227.929596
v -28.227470 -168.134949 -186.616577
v -47.686340 -137.367477 -167.157700
v -28.227470 -168.134949 -232.963745
v -47.686340 -137.367477 -252.422623
v 18.119709 -168.134949 -186.616577
v 37.578575 -137.367477 -167.157700
v 18.119709 -168.134949 -232.963745
v 37.578575 -137.367477 -252.422623
v 41.493065 187.227051 -256.337097
v 41.493065 187.227051 -163.243225
v 41.493065 -122.424942 -256.337097
v 41.493065 -122.424942 -163.243225
v 30.781878 47.889435 -227.929596
v 30.781878 47.889435 -191.650742
v 30.781878 31.907104 -227.929596
v 30.781878 31.907104 -191.650742
vt -2.236280 5.256809
vt -6.029157 5.256809
vt -6.029157 0.360533
vt -2.236281 0.360533
vt 1.055092 -0.084693
vt 1.378437 -0.084693
vt 1.378437 0.845800
vt 1.055092 0.845800
vt -2.236280 0.360533
vt -6.029157 0.360533
vt -6.029157 -4.535743
vt -2.236281 -4.535743
vt 6.469263 5.256809
vt 2.676386 5.256809
vt 2.676386 0.360533
vt 6.469263 0.360533
vt 7.029158 -4.535743
vt 7.029158 0.360533
vt 2.676386 0.360533
vt 2.676386 -4.535743
vt -1.870223 0.566416
vt -1.870223 5.050927
vt 2.299520 -4.329861
vt 2.299520 0.154651
vt 2.116491 0.360533
vt 2.116491 -4.535743
vt -2.053252 -4.329861
vt -2.053252 0.154651
vt 6.652292 0.566416
vt 6.652292 5.050927
vt 1.583522 1.589856
vt -0.583523 1.589856
vt -1.116492 0.990339
vt 2.116491 0.990338
vt 1.583522 4.027487
vt 2.116491 4.627005
vt -0.583523 4.027486
vt -1.116492 4.627004
vt 0.144891 -0.815855
vt 0.144891 1.815857
vt -2.209092 3.876571
vt -2.209092 -2.876571
vt 0.414898 1.815857
vt 0.414898 -0.815855
vt 3.022199 -2.876571
vt 3.022199 3.876571
vt 1.055092 -1.015185
vt 1.055092 2.015185
vt 0.194800 2.015185
vt 0.194800 -1.015185
vt 1.378437 -0.084693
vt 1.055093 -0.084693
vt 1.055093 -1.015185
vt 1.378437 -1.015185
vt -0.665494 2.015185
vt -0.665493 -1.015185
vt 0.194800 -1.015185
vt 0.194799 2.015185
vn 0.0000 0.0000 1.0000
vn 0.0000 0.0000 -1.0000
vn -1.0000 0.0000 0.0000
vn 0.0000 1.0000 0.0000
vn 0.0000 -0.2534 0.9674
vn 0.9674 -0.2534 0.0000
vn 0.0000 -0.2534 -0.9674
vn -0.9674 -0.2534 0.0000
vn -0.8452 -0.5345 0.0000
vn 0.0000 -0.5345 -0.8452
vn 0.8452 -0.5345 0.0000
vn 0.0000 -0.5345 0.8452
vn 0.0000 -1.0000 0.0000
vn 1.0000 0.0000 0.0000
usemtl Material.022
s off
f 20/1/1 18/2/1 1/3/1 5/4/1
f 3/5/2 7/6/2 24/7/2 22/8/2
f 6/9/2 2/10/2 17/11/2 19/12/2
f 5/13/3 1/14/3 2/15/3 6/16/3
f 17/17/4 2/18/4 1/19/4 18/20/4
f 10/21/5 14/22/5 20/1/5 5/4/5
f 14/23/6 16/24/6 19/25/6 20/26/6
f 16/27/7 12/28/7 6/9/7 19/12/7
f 12/29/8 10/30/8 5/13/8 6/16/8
f 11/31/9 9/32/9 10/33/9 12/34/9
f 15/35/10 11/31/10 12/34/10 16/36/10
f 13/37/11 15/35/11 16/36/11 14/38/11
f 9/32/12 13/37/12 14/22/12 10/21/12
f 11/31/13 15/35/13 13/37/13 9/32/13
f 3/39/14 4/40/14 17/41/14 18/42/14
f 8/43/14 7/44/14 20/45/14 19/46/14
f 7/44/14 3/39/14 18/42/14 20/45/14
f 4/40/14 8/43/14 19/46/14 17/41/14
f 4/47/13 3/48/13 22/49/13 21/50/13
f 8/51/1 4/52/1 21/53/1 23/54/1
f 7/55/4 8/56/4 23/57/4 24/58/4
o Cube.005_Cube.025
v -15.921986 -6.977783 -200.428345
v -15.921986 -1.804239 -200.428345
v -15.921986 -6.977783 -220.221954
v -15.921986 -1.804239 -220.221954
v 4.470093 -6.977783 -200.428345
v 4.470093 -1.804239 -200.428345
v 4.470093 -6.977783 -220.221954
v 4.470093 -1.804239 -220.221954
v -58.945107 -9.930542 -262.004944
v -58.945107 -9.930542 -158.645386
v -58.945107 1.148521 -158.645386
v -58.945107 1.148521 -262.004944
v 47.493206 -9.930542 -262.004944
v 47.493206 1.148521 -262.004944
v 47.493206 -9.930542 -158.645386
v 47.493206 1.148521 -158.645386
vt 3.086159 -2.086159
vt 3.086159 -0.362053
vt 1.362053 -0.362053
vt 1.362053 -2.086159
vt -0.362053 -2.086159
vt -0.362053 -0.362053
vt -2.086159 -0.362053
vt -2.086159 -2.086159
vt -0.362053 -0.362053
vt -0.362053 1.362053
vt -2.086159 1.362053
vt -2.086159 -0.362053
vt 1.362053 -2.086159
vt 1.362053 -0.362053
vt -0.362053 -0.362053
vt -0.362053 -2.086159
vt 1.349635 1.349265
vt -2.073741 3.073371
vt -2.073741 1.374841
vt 1.349635 -0.349265
vt -0.349635 1.349265
vt -0.374471 3.073371
vt 0.578519 0.404207
vt 0.392556 0.404207
vt 0.000000 0.000000
vt 0.971075 0.000000
vt 0.392556 0.595793
vt 0.578519 0.595793
vt 0.971075 1.000000
vt 0.000000 1.000000
vt 0.578519 0.595793
vt 0.971075 1.000000
vt 0.578519 0.404207
vt 0.971075 0.000000
vt 0.392556 0.595793
vt 0.000000 1.000000
vt 0.392556 0.404207
vt 0.000000 0.000000
vt -0.374471 1.374841
vt -0.349635 -0.349265
vn -1.0000 0.0000 0.0000
vn 0.0000 0.0000 -1.0000
vn 1.0000 0.0000 0.0000
vn 0.0000 0.0000 1.0000
vn 0.0685 -0.9977 0.0000
vn 0.0685 0.9977 0.0000
vn 0.0000 -0.9975 0.0705
vn 0.0000 0.9975 0.0705
vn -0.0685 -0.9977 0.0000
vn -0.0685 0.9977 0.0000
vn 0.0000 -0.9975 -0.0705
vn 0.0000 0.9975 -0.0705
usemtl Material.026
s off
f 34/59/15 35/60/15 36/61/15 33/62/15
f 33/63/16 36/64/16 38/65/16 37/66/16
f 37/67/17 38/68/17 40/69/17 39/70/17
f 39/71/18 40/72/18 35/73/18 34/74/18
f 29/75/15 30/76/15 32/77/15 31/78/15
f 25/79/16 26/80/16 30/76/16 29/75/16
f 27/81/19 25/82/19 34/83/19 33/84/19
f 26/85/20 28/86/20 36/87/20 35/88/20
f 31/89/21 27/81/21 33/84/21 37/90/21
f 28/86/22 32/91/22 38/92/22 36/87/22
f 29/93/23 31/89/23 37/90/23 39/94/23
f 32/91/24 30/95/24 40/96/24 38/92/24
f 25/82/25 29/93/25 39/94/25 34/83/25
f 30/95/26 26/85/26 35/88/26 40/96/26
f 31/78/18 32/77/18 28/97/18 27/98/18
f 27/98/17 28/97/17 26/80/17 25/79/17
o Cube.006_Cube.026
v -58.945107 92.031494 -158.645386
v -58.945107 99.361954 -158.645386
v -58.945107 92.031494 -262.004944
v -58.945107 99.361954 -262.004944
v 47.493206 92.031494 -158.645386
v 47.493206 99.361954 -158.645386
v 47.493206 92.031494 -262.004944
v 47.493206 99.361954 -262.004944
vt 3.086159 -2.086159
vt 3.086159 -0.362053
vt 1.362053 -0.362053
vt 1.362053 -2.086159
vt -0.362053 -2.086159
vt -0.362053 -0.362053
vt -2.086159 -0.362053
vt -2.086159 -2.086159
vt -0.362053 -0.362053
vt -0.362053 1.362053
vt -2.086159 1.362053
vt -2.086159 -0.362053
vt 1.362053 -2.086159
vt 1.362053 -0.362053
vt -0.362053 -0.362053
vt -0.362053 -2.086159
vt -0.362053 -0.362053
vt 1.362053 -0.362053
vt 1.362053 1.362053
vt -0.362053 1.362053
vt -2.086159 1.362053
vt -0.362053 1.362053
vt -0.362053 3.086159
vt -2.086159 3.086159
vn -1.0000 0.0000 0.0000
vn 0.0000 0.0000 -1.0000
vn 1.0000 0.0000 0.0000
vn 0.0000 0.0000 1.0000
vn 0.0000 -1.0000 0.0000
vn 0.0000 1.0000 0.0000
usemtl Material.027
s off
f 41/99/27 42/100/27 44/101/27 43/102/27
f 43/103/28 44/104/28 48/105/28 47/106/28
f 47/107/29 48/108/29 46/109/29 45/110/29
f 45/111/30 46/112/30 42/113/30 41/114/30
f 43/115/31 47/116/31 45/117/31 41/118/31
f 48/119/32 44/120/32 42/121/32 46/122/32
o Cube.007_Cube.027
v -51.838287 12.249284 -177.096649
v -51.838287 22.734108 -177.096649
v -51.838287 12.249284 -192.057098
v -51.838287 22.734108 -192.057098
v -47.500458 12.249284 -177.096649
v -47.500458 22.734108 -177.096649
v -47.500458 12.249284 -192.057098
v -47.500458 22.734108 -192.057098
vt 3.086159 -2.086159
vt 3.086159 -0.362053
vt 1.362053 -0.362053
vt 1.362053 -2.086159
vt -0.362053 -2.086159
vt -0.362053 -0.362053
vt -2.086159 -0.362053
vt -2.086159 -2.086159
vt -0.362053 -0.362053
vt -0.362053 1.362053
vt -2.086159 1.362053
vt -2.086159 -0.362053
vt 1.362053 -2.086159
vt 1.362053 -0.362053
vt -0.362053 -0.362053
vt -0.362053 -2.086159
vt -0.362053 -0.362053
vt 1.362053 -0.362053
vt 1.362053 1.362053
vt -0.362053 1.362053
vt -2.086159 1.362053
vt -0.362053 1.362053
vt -0.362053 3.086159
vt -2.086159 3.086159
vn -1.0000 0.0000 0.0000
vn 0.0000 0.0000 -1.0000
vn 1.0000 0.0000 0.0000
vn 0.0000 0.0000 1.0000
vn 0.0000 -1.0000 0.0000
vn 0.0000 1.0000 0.0000
usemtl Material.028
s off
f 49/123/33 50/124/33 52/125/33 51/126/33
f 51/127/34 52/128/34 56/129/34 55/130/34
f 55/131/35 56/132/35 54/133/35 53/134/35
f 53/135/36 54/136/36 50/137/36 49/138/36
f 51/139/37 55/140/37 53/141/37 49/142/37
f 56/143/38 52/144/38 50/145/38 54/146/38
o Cube.008_Cube.030
v -29.114044 19.170527 -211.829239
v -29.114044 15.444887 -211.829239
v -31.594685 19.170528 -214.309875
v -31.594685 15.444887 -214.309875
v -49.574516 19.170527 -191.368774
v -48.427784 15.444885 -192.515503
v -53.393013 19.170527 -192.511551
v -53.393013 15.444886 -192.511551
v -28.583912 14.431308 -211.299103
v -31.594685 14.431309 -214.309875
v -53.393013 14.431307 -192.511551
v -47.897652 14.431307 -191.985367
v -46.789593 15.444885 -190.877304
v -27.475853 15.444886 -210.191055
v -46.789593 14.431307 -190.877304
v -27.475853 14.431308 -210.191055
v -31.594685 20.353037 -214.309875
v -28.583912 20.353035 -211.299103
v -53.393013 20.353035 -192.511551
v -49.044384 20.353035 -190.838638
v -27.475853 19.170527 -210.191055
v -46.789593 19.170527 -190.877304
v -27.475853 20.353035 -210.191055
v -46.789593 20.353035 -190.877304
vt 0.375000 0.000000
vt 0.625000 0.000000
vt 0.625000 0.250000
vt 0.375000 0.250000
vt 0.375000 -0.062500
vt 0.625000 -0.062500
vt 0.625000 0.812500
vt 0.375000 0.812500
vt 0.375000 0.500000
vt 0.625000 0.500000
vt 0.625000 0.750000
vt 0.375000 0.750000
vt -0.064871 -0.183568
vt 0.185511 -0.106946
vt 0.185511 1.183568
vt -0.064871 1.183568
vt 0.375000 0.250000
vt 0.375000 0.000000
vt 0.625000 0.000000
vt 0.625000 0.250000
vt 0.254399 0.000000
vt 0.254399 1.000000
vt 0.082496 1.000000
vt 0.082496 0.113981
vt 0.625000 1.000000
vt 0.625000 0.750000
vt 0.625000 1.000000
vt 0.120559 0.000000
vt 0.120559 1.000000
vt 0.073792 1.000000
vt 0.073792 0.000000
vt 0.371595 0.342038
vt 0.373540 0.999981
vt 0.211055 0.999866
vt 0.209739 0.231273
vt 0.561482 -0.183568
vt 0.561482 1.106945
vt 0.493364 1.106945
vt 0.493364 -0.183568
vt 0.019231 0.000000
vt 0.463729 0.323609
vt 0.463729 1.000000
vt 0.019231 1.000000
vt 0.625000 0.000000
vt 0.625000 0.000000
vt 0.413894 -0.183568
vt 0.413894 1.106946
vt 0.321746 1.106946
vt 0.321746 -0.183568
vt 0.019231 1.000000
vt 0.019231 0.000000
vt 0.191134 0.061374
vt 0.191134 1.000000
vt 0.209739 0.000134
vt 0.209427 0.593377
vt 0.019231 0.703892
vt 0.020173 0.000000
vt 0.375000 0.000000
vt 0.375000 0.000000
vt 0.019231 1.000000
vt 0.019231 0.000000
vt 0.073792 0.000000
vt 0.073792 1.000000
vt 0.413894 1.106945
vt 0.413894 -0.183568
vt 0.493364 -0.183568
vt 0.493364 1.106945
vt 0.254399 0.113981
vt 0.254399 1.000000
vt 0.209739 1.000000
vt 0.020173 0.999866
vt 0.321746 -0.183568
vt 0.321746 1.183568
vt 0.185511 1.183568
vt 0.185511 -0.106946
vn 0.7071 0.0000 -0.7071
vn -0.7071 0.0000 -0.7071
vn -0.1267 -0.1699 0.9773
vn 0.7071 0.0000 0.7071
vn -0.0000 -1.0000 -0.0000
vn 0.0000 1.0000 0.0000
vn -0.0484 0.2408 0.9694
vn -0.7071 0.0000 0.7071
vn -0.3228 -0.1375 0.9364
vn -0.0877 -0.1991 0.9760
usemtl Material.031
s off
f 57/147/39 58/148/39 60/149/39 59/150/39
f 59/151/40 60/152/40 64/153/40 63/154/40
f 63/155/41 64/156/41 62/157/41 61/158/41
f 61/159/42 62/160/42 58/161/42 57/162/42
f 57/147/39 59/150/39 73/163/39 74/164/39
f 60/149/39 58/148/39 65/165/39 66/166/39
f 67/167/43 66/168/43 65/169/43 68/170/43
f 58/171/44 62/157/44 69/172/44 70/173/44
f 64/174/40 60/175/40 66/176/40 67/177/40
f 62/178/45 64/179/45 67/180/45 68/181/45
f 70/182/42 69/183/42 71/184/42 72/185/42
f 62/186/46 68/187/46 71/188/46 69/189/46
f 65/165/39 58/148/39 70/190/39 72/191/39
f 68/192/43 65/193/43 72/194/43 71/195/43
f 73/196/44 75/197/44 76/198/44 74/199/44
f 63/200/47 61/201/47 76/202/47 75/203/47
f 57/147/39 74/164/39 79/204/39 77/205/39
f 59/206/40 63/207/40 75/208/40 73/209/40
f 78/210/42 77/211/42 79/212/42 80/213/42
f 74/199/44 76/198/44 80/214/44 79/215/44
f 76/202/48 61/201/48 78/216/48 80/217/48
f 61/218/43 57/219/43 77/220/43 78/221/43
o Cube.009_Cube.031
v -33.593922 12.249284 -211.583801
v -33.593922 22.734108 -211.583801
v -33.593922 12.249284 -256.533081
v -33.593922 22.734108 -256.533081
v -29.256094 12.249284 -211.583801
v -29.256094 22.734108 -211.583801
v -29.256094 12.249284 -256.533081
v -29.256094 22.734108 -256.533081
vt 3.086159 -2.086159
vt 3.086159 -0.362053
vt 1.362053 -0.362053
vt 1.362053 -2.086159
vt -0.362053 -2.086159
vt -0.362053 -0.362053
vt -2.086159 -0.362053
vt -2.086159 -2.086159
vt -0.362053 -0.362053
vt -0.362053 1.362053
vt -2.086159 1.362053
vt -2.086159 -0.362053
vt 1.362053 -2.086159
vt 1.362053 -0.362053
vt -0.362053 -0.362053
vt -0.362053 -2.086159
vt -0.362053 -0.362053
vt 1.362053 -0.362053
vt 1.362053 1.362053
vt -0.362053 1.362053
vt -2.086159 1.362053
vt -0.362053 1.362053
vt -0.362053 3.086159
vt -2.086159 3.086159
vn -1.0000 0.0000 0.0000
vn 0.0000 0.0000 -1.0000
vn 1.0000 0.0000 0.0000
vn 0.0000 0.0000 1.0000
vn 0.0000 -1.0000 0.0000
vn 0.0000 1.0000 0.0000
usemtl Material.032
s off
f 81/222/49 82/223/49 84/224/49 83/225/49
f 83/226/50 84/227/50 88/228/50 87/229/50
f 87/230/51 88/231/51 86/232/51 85/233/51
f 85/234/52 86/235/52 82/236/52 81/237/52
f 83/238/53 87/239/53 85/240/53 81/241/53
f 88/242/54 84/243/54 82/244/54 86/245/54
o Cube.010_Cube.032
v -21.099730 12.249284 -172.598328
v -21.099730 22.734108 -172.598328
v -21.099730 12.249284 -187.558777
v -21.099730 22.734108 -187.558777
v 7.978884 12.249284 -172.598328
v 7.978884 22.734108 -172.598328
v 7.978884 12.249284 -187.558777
v 7.978884 22.734108 -187.558777
vt 3.086159 -2.086159
vt 3.086159 -0.362053
vt 1.362053 -0.362053
vt 1.362053 -2.086159
vt -0.362053 -2.086159
vt -0.362053 -0.362053
vt -2.086159 -0.362053
vt -2.086159 -2.086159
vt -0.362053 -0.362053
vt -0.362053 1.362053
vt -2.086159 1.362053
vt -2.086159 -0.362053
vt 1.362053 -2.086159
vt 1.362053 -0.362053
vt -0.362053 -0.362053
vt -0.362053 -2.086159
vt -0.362053 -0.362053
vt 1.362053 -0.362053
vt 1.362053 1.362053
vt -0.362053 1.362053
vt -2.086159 1.362053
vt -0.362053 1.362053
vt -0.362053 3.086159
vt -2.086159 3.086159
vn -1.0000 0.0000 0.0000
vn 0.0000 0.0000 -1.0000
vn 1.0000 0.0000 0.0000
vn 0.0000 0.0000 1.0000
vn 0.0000 -1.0000 0.0000
vn 0.0000 1.0000 0.0000
usemtl Material.033
s off
f 89/246/55 90/247/55 92/248/55 91/249/55
f 91/250/56 92/251/56 96/252/56 95/253/56
f 95/254/57 96/255/57 94/256/57 93/257/57
f 93/258/58 94/259/58 90/260/58 89/261/58
f 91/262/59 95/263/59 93/264/59 89/265/59
f 96/266/60 92/267/60 90/268/60 94/269/60
